# xmcd
#
# Track frame offsets: 
#        150
#        16728
#        32791
#        56303
#        75954
#        87674
#        110484
#        129710
#        148534
#        164649
#        182777
#        212337
#
# Disc length: 3198 seconds
#
# Revision: 0
# Processed by: cddbd v1.5.1PL0 Copyright (c) Steve Scherf et al.
# Submitted via: ExactAudioCopy v0.95a5
#
DISCID=9a0c7c0c
DTITLE=U. P. Wilson - On My Way
DYEAR=1999
DGENRE=Blues
TTITLE0=U.P. Express
TTITLE1=Cross Cut Saw
TTITLE2=Reconsider Baby
TTITLE3=Bluebird Boog-A-Loo
TTITLE4=Hold On Baby
TTITLE5=Mean Old World
TTITLE6=Como Station
TTITLE7=I'll Be Coming Home
TTITLE8=7 Comes 11
TTITLE9=On My Way
TTITLE10=Cold, Cold Feeling (Live)
TTITLE11=Slice 'N' Dice (Live)
EXTD=
EXTT0=
EXTT1=
EXTT2=
EXTT3=
EXTT4=
EXTT5=
EXTT6=
EXTT7=
EXTT8=
EXTT9=
EXTT10=
EXTT11=
PLAYORDER=
